# xmcd CD database file
#
# Track frame offsets:
#	182
#	9007
#	18682
#	28057
#	36532
#	48607
#	57832
#	67132
#	78757
#	88507
#	99982
#	109657
#	118732
#	129232
#
# Disc length: 1844 seconds
#
# Revision: 0
# Processed by: cddbd v1.4PL0 Copyright (c) Steve Scherf et al.
# Submitted via: CdAid 2001.05.15.01
#
DISCID=b107320e
DTITLE=CHAD MORGAN - BEEN THERE, DONE THAT, (GONNA DO IT AGAIN)
DYEAR=1900
DGENRE=
TTITLE0=Title 01 THE PUBLICAN'S DAUGHTER
TTITLE1=Title 02 TAKE ME BACK UP TO THE CROSS
TTITLE2=TITLE 03 THE DAY I GAVE UP DRINKIN
TTITLE3=Title 04 MOTHER WAKES ME EVERY MORNING
TTITLE4=Title 05 THE CAT CAME BACK
TTITLE5=Title 06 MY HAMSTRING KEEPS GOING ON ME
TTITLE6=Title 07 WOOL SHED SWINGER
TTITLE7=Title 08 WHAT DO YOU LIKE FOR THE CUP
TTITLE8=Title 09 THE ARMCHAIR JOCKEY
TTITLE9=Title 10 JOCK STRAPPS ELASTIC BAND
TTITLE10=Title 11 WATCH THE MAN WHO DOESN'T DRINK
TTITLE11=Title 12 PUB THAT TIME FORGOT
TTITLE12=Title 13 MORMONS AGAIN
TTITLE13=Title 14 IT'S BETTER TO BE LUCKY THAN GOODLOOKIN
EXTD=
EXTT0=
EXTT1=
EXTT2=
EXTT3=
EXTT4=
EXTT5=
EXTT6=
EXTT7=
EXTT8=
EXTT9=
EXTT10=
EXTT11=
EXTT12=
EXTT13=
PLAYORDER=
